/* XPM */
static char *_8293_99dd327c59f5e4f37809b4e9d576bbe5fca4283f0e4b5449f05a8983b4e4e5de[] = {
/* columns rows colors chars-per-pixel */
"32 32 149 2 ",
"   c #735131",
".  c #9A703B",
"X  c #83674D",
"o  c #947657",
"O  c #AD7E40",
"+  c #B98A3F",
"@  c #CD922B",
"#  c #D19527",
"$  c #D29529",
"%  c #D6992A",
"&  c #D99B2B",
"*  c #C88D3C",
"=  c #CB963B",
"-  c #CF9A3D",
";  c #D09732",
":  c #D69A31",
">  c #DB9F30",
",  c #D39C3D",
"<  c #D99D3B",
"1  c #DEA133",
"2  c #DEA53B",
"3  c #E1A333",
"4  c #E2A539",
"5  c #E2A83E",
"6  c #AC814D",
"7  c #B58743",
"8  c #BD8C45",
"9  c #BA914E",
"0  c #B58F5F",
"q  c #C79544",
"w  c #C89746",
"e  c #CE9A43",
"r  c #C59649",
"t  c #C4984B",
"y  c #CB9C4C",
"u  c #D69C44",
"i  c #DA9D41",
"p  c #D59B4C",
"a  c #DB9D49",
"s  c #CA9551",
"d  c #CC9F52",
"f  c #D59A52",
"g  c #D79F5B",
"h  c #D6A247",
"j  c #DCA445",
"k  c #DFAA45",
"l  c #D1A14D",
"z  c #DBA54B",
"x  c #DDA94C",
"c  c #CEA254",
"v  c #D4A654",
"b  c #D7A956",
"n  c #DCAB52",
"m  c #D5AA5B",
"M  c #DAAD5C",
"N  c #DFB15B",
"B  c #E3A742",
"V  c #E4AB42",
"C  c #EDAE46",
"Z  c #E2A54B",
"A  c #E2AC4C",
"S  c #EBAE4B",
"D  c #EFB246",
"F  c #E5B04B",
"G  c #F4B547",
"H  c #F5B54E",
"J  c #F6BA4B",
"K  c #FCBE4E",
"L  c #E0A453",
"P  c #EBAD54",
"I  c #E2A75D",
"U  c #E5AD59",
"Y  c #E3B255",
"T  c #EBB552",
"R  c #EDB855",
"E  c #E3B45B",
"W  c #EBB45B",
"Q  c #E7B85D",
"!  c #ECBA5D",
"~  c #F2BA52",
"^  c #FBBE51",
"/  c #F3BD5B",
"(  c #C9A163",
")  c #C8A36B",
"_  c #DBAE62",
"`  c #DDB264",
"'  c #DCB174",
"]  c #E4AB66",
"[  c #E1B663",
"{  c #E5BA64",
"}  c #EBBC63",
"|  c #E1B668",
" . c #E6BE6E",
".. c #E9BE6D",
"X. c #F1B860",
"o. c #F1B568",
"O. c #FABD69",
"+. c #E7B170",
"@. c #E7BF70",
"#. c #E8BF70",
"$. c #E8BD7C",
"%. c #F2B872",
"&. c #F1B979",
"*. c #FDC254",
"=. c #F5C15D",
"-. c #FBC45B",
";. c #FFCB5D",
":. c #EFC066",
">. c #EBC16E",
",. c #F4C264",
"<. c #FBC664",
"1. c #FFCD64",
"2. c #F2C46B",
"3. c #F7C86E",
"4. c #FDCB6B",
"5. c #FFD465",
"6. c #FFD46C",
"7. c #E7C071",
"8. c #EBC272",
"9. c #EBC47B",
"0. c #F1C673",
"q. c #FDC474",
"w. c #F3C975",
"e. c #FFCB73",
"r. c #FBC57D",
"t. c #F3CB7B",
"y. c #FFCB7D",
"u. c #FFD573",
"i. c #FDD27C",
"p. c #EFC380",
"a. c #EFCF80",
"s. c #FCC480",
"d. c #EBD084",
"f. c #FBD383",
"g. c #F4DF8F",
"h. c #FFDA8A",
"j. c #F1DE93",
"k. c #FFE292",
"l. c #F3E29D",
"z. c #F5E89B",
"x. c #FFEC9B",
"c. c #F4E4A4",
"v. c #F5E8A3",
"b. c #F8EEAE",
"n. c #FFF2A2",
"m. c #FFFBAC",
"M. c #FFFFB4",
"N. c #FDFAB9",
"B. c None",
/* pixels */
"B.B.B.B.B.B.B.B.B.B.B.B.B.B.B.B.B.B.B.B.B.B.B.B.B.B.B.B.B.B.B.B.",
"B.B.B.B.B.B.B.B.B.B.B.B.B.c.l.j.d.9.@.B.B.B.B.B.B.B.B.B.B.B.B.B.",
"B.B.B.B.B.B.B.B.B.B.j.v.b.N.M.m.n.k.f. .` m B.B.B.B.B.B.B.B.B.B.",
"B.B.B.B.B.B.B.B. .t.n.M.M.M.z.n.x.h.f.t.t.8.M c B.B.B.B.B.B.B.B.",
"B.B.B.B.B.B.B.M i.k.x.n.n.g.i.k.h.f.t.0.9.>.7.| c B.B.B.B.B.B.B.",
"B.B.B.B.B.B.m t.f.h.k.k.k.{ i.i.t.9.9.8.7.>.7. . .v B.B.B.B.B.B.",
"B.B.B.B.B._ t.t.i.f.h.f.t.A w.t.8.8.@.8.7.7. . .>. .M B.B.B.B.B.",
"B.B.B.B.` t.t.t.t.t.t.t.` k 8.8.8.` ` @.>.@.@. .@.>. .b B.B.B.B.",
"B.B.B.M 9.t.w.t.t.9.8.8.M > { 7.v # # x 8.7.>.7.7.8.8.8.y B.B.B.",
"B.B.B.` 0.9.0.8.8.7.8.>.` @ h >., & & k >.8.8.8.8.9.0.8.{ B.B.B.",
"B.B.v @.8.8.8.7.7. .>.>.7.2 % x E 1 k Q 8.9.w.t.t.t.8.8.8.t B.B.",
"B.B.m @. .8.7. . . . . .>.E @ & h M :.8.t.w.t.t.w.t.t.8.:.N B.B.",
"B.B._ @. .@.@.@. . . . .l @ 2 1 > 3 : n t.t.t.t.t.t.w.2.2.! B.B.",
"B.c `  . .@.@.7.7. . .= 2 Y N >.F 3 3 3 j 0.t.t.w.w.w.3.,.=.7 B.",
"B.d  .@.@.@. . .>.7.e 2 } ` x 8.8.A 3 5 4 k w.t.w.3.3.<.-.-.w B.",
"B.d @. . . . .@.@.m : Q >.- Q 8.8. .2 3 Q 1 ! 3.3.4.4.1.<.-.u B.",
"B.y 7.7.' 7. . .>.= k  .` : [ 7.8.8.v 1 } x 5 3.4.4.1.1.;.;.l B.",
"B.y 7.>.>. . . .7.@ Y  .b & { >.>.>.M 4 :.E 4 <.1.5.5.5.;.;.y B.",
"B.c ` 7.7.7.7. .` # E >.b & Y >.>.>.v 5 X.,.< ;.5.6.5.5.1.<.9 B.",
"B.B.M ` 7.7.{  ._ % ` 7.>.% : | >.>.h R ,.<.i ;.5.5.5.6.4.4.B.B.",
"B.B.M  . . . . .` # E 7.8.E 1 % Y { A =.-.=.Z ;.6.6.6.u.4.%.B.B.",
"B.B.c `  .7. . .7.; F 8.8.8.{ 5 : k ~ =.-.T W 5.6.u.u.e.e.( B.B.",
"B.B.B.M >.7.>.7.>.z 2 >.8.>.:.:.T V F *.-.z X.6.u.u.y.y.t.B.B.B.",
"B.B.B.l `  .7.7.7.7.1 A :.:.:.X./ ~ J *.Z U 4.4.u.f.y.y.) B.B.B.",
"B.B.B.B.b 7.8.8.9.0.! 1 x ,.=.~ H J J j f X.<.e.i.f.s.$.B.B.B.B.",
"B.B.B.B.B.N 8.8.8.8.2.T 1 < j Z B < * p P X.O.q.r.s.p.B.B.B.B.B.",
"B.B.B.B.B.B.` >.2.2.,.,./ G 5 < u u a L P X.o.%.&.$.o B.B.B.B.B.",
"B.B.B.B.B.B.B.M :.,.,.-.-.*.K G C V Z Z L I ] +.' X B.B.B.B.B.B.",
"B.B.B.B.B.B.B.B.r / -.-.*.^ K H S Z a a f g ] 0 B.B.B.B.B.B.B.B.",
"B.B.B.B.B.B.B.B.B.B.w T *.K H P Z a p f s 6 B.B.B.B.B.B.B.B.B.B.",
"B.B.B.B.B.B.B.B.B.B.B.B.B.7 q 8 7 O .   B.B.B.B.B.B.B.B.B.B.B.B.",
"B.B.B.B.B.B.B.B.B.B.B.B.B.B.B.B.B.B.B.B.B.B.B.B.B.B.B.B.B.B.B.B."
};
