/* XPM */
static char *_218411a545e46a19ca2b858a5651377[] = {
/* columns rows colors chars-per-pixel */
"16 16 154 2 ",
"   c #D69C32",
".  c #D49C38",
"X  c #DEA337",
"o  c #DAA239",
"O  c #DEA43D",
"+  c #E1A537",
"@  c #B28958",
"#  c #CE9E4D",
"$  c #D79B4B",
"%  c #C99452",
"&  c #DAA543",
"*  c #DFA740",
"=  c #DBA145",
"-  c #D8A344",
";  c #D8A546",
":  c #D8A547",
">  c #DAA647",
",  c #DAA747",
"<  c #DCA746",
"1  c #DAA84C",
"2  c #DCA94C",
"3  c #DFAA4C",
"4  c #CFA355",
"5  c #D2A553",
"6  c #DAAA51",
"7  c #D5A85C",
"8  c #D8AC5C",
"9  c #D9AE5C",
"0  c #DAAE5D",
"q  c #DCAF5F",
"w  c #E0A345",
"e  c #E2AA45",
"r  c #E8AE47",
"t  c #ECAD45",
"y  c #E2A44A",
"u  c #E1A54C",
"i  c #E2AA49",
"p  c #E1AC4B",
"a  c #E0AB4C",
"s  c #E1AE4D",
"d  c #ECB24D",
"f  c #F4B54D",
"g  c #F5BA4F",
"h  c #E7AE52",
"j  c #E7AA58",
"k  c #E9AF5A",
"l  c #E0B156",
"z  c #E9B251",
"x  c #EDB650",
"c  c #EDB553",
"v  c #E9B554",
"b  c #EFB852",
"n  c #E7B65B",
"m  c #E1B35D",
"M  c #E1B45E",
"N  c #E4B65D",
"B  c #E6B65C",
"V  c #EFBA58",
"C  c #E8B95E",
"Z  c #F7BD53",
"A  c #F4BE59",
"S  c #F5BF5A",
"D  c #C9A167",
"F  c #DAB060",
"G  c #DBB062",
"H  c #DFB360",
"J  c #DEB466",
"K  c #DAAD73",
"L  c #E1B461",
"P  c #E1B565",
"I  c #E4B863",
"U  c #E6B963",
"Y  c #E5BA66",
"T  c #EEBE62",
"R  c #E0B768",
"E  c #ECB26C",
"W  c #E1B869",
"Q  c #E5B96A",
"!  c #E4BA6A",
"~  c #E4BA6B",
"^  c #E7BC68",
"/  c #E6BD6D",
"(  c #E6BE6D",
")  c #E5BD6E",
"_  c #E6BD6E",
"`  c #E6BE6E",
"'  c #E7BF6E",
"]  c #E6BE6F",
"[  c #E7BE6F",
"{  c #E7BF6F",
"}  c #E9BD68",
"|  c #E8BF6D",
" . c #EFBC6D",
".. c #E2B577",
"X. c #E7BF70",
"o. c #FDC152",
"O. c #FCC55D",
"+. c #FFCB5C",
"@. c #EDC06B",
"#. c #EAC06E",
"$. c #EDC26C",
"%. c #F1C062",
"&. c #F5C363",
"*. c #F6C362",
"=. c #FFCB67",
"-. c #F1C269",
";. c #F1C56E",
":. c #FDC36D",
">. c #F7C96F",
",. c #FBC969",
"<. c #FCCA69",
"1. c #FECD69",
"2. c #FFD065",
"3. c #FFD466",
"4. c #FFD567",
"5. c #FFD76C",
"6. c #E8C070",
"7. c #E9C171",
"8. c #EAC271",
"9. c #E9C172",
"0. c #EAC272",
"q. c #EBC272",
"w. c #EBC372",
"e. c #EBC373",
"r. c #EEC573",
"t. c #EDC474",
"y. c #EEC575",
"u. c #EFC675",
"i. c #EFC777",
"p. c #EDCA7B",
"a. c #F4C770",
"s. c #F0C776",
"d. c #F0C778",
"f. c #FDC77E",
"g. c #F1C979",
"h. c #F1C97A",
"j. c #F4CA78",
"k. c #F4CB7D",
"l. c #F4CC7C",
"z. c #FECB7D",
"x. c #F8CF7E",
"c. c #FFD273",
"v. c #FFD378",
"b. c #F8D07F",
"n. c #F7D080",
"m. c #FCD682",
"M. c #FCD787",
"N. c #F7DC89",
"B. c #FFE596",
"V. c #FFE898",
"C. c #F9EFA3",
"Z. c #FDF5A8",
"A. c #FDF9B4",
"S. c None",
/* pixels */
"S.S.S.S.S.S.S.S.S.S.S.S.S.S.S.S.",
"S.S.S.S.p.C.A.Z.B.k.Q 7 S.S.S.S.",
"S.S.S.P M.V.N.m.n.y.6.] 0 S.S.S.",
"S.S.Q l.b.n.B y.] ] 6.X.] 0 S.S.",
"S.G g.d.t.6., I . o 6.6.6.e.4 S.",
"S.J 6.6.X.#.m   2 C g.g.g.s.L S.",
"S.W ] X.X.H - s + O @.l.j.a.%.S.",
"S.] ] ] Q & m U } X e ;.>.<.O.S.",
"S.] ] ] 6 B ; ^ 6.< n b 1.2.+.S.",
"S.J ] ] , Y ; l | s *.d 3.4.<.S.",
"S.G ^ ] 1 Y #.* a V S S 5.c. .S.",
"S.5 ] ] Y p @.T x g h <.v.z.D S.",
"S.S.0 6.y.v i z r = k :.f...S.S.",
"S.S.S.q -.&.Z t w u j E K S.S.S.",
"S.S.S.S.# x o.f y $ % @ S.S.S.S.",
"S.S.S.S.S.S.S.S.S.S.S.S.S.S.S.S."
};
