/* XPM */
static char *_8883_efc42fcfabfa917dcf079ccf5f7923d14aa0123167323e300409732b9bf988a3[] = {
/* columns rows colors chars-per-pixel */
"64 64 218 2 ",
"   c #533C2A",
".  c #47372B",
"X  c #584639",
"o  c #6A4A2A",
"O  c #654D3A",
"+  c #6F5033",
"@  c #7B5835",
"#  c #665243",
"$  c #825D36",
"%  c #845C2B",
"&  c #846038",
"*  c #956A35",
"=  c #976D33",
"-  c #A87A37",
";  c #826349",
":  c #987556",
">  c #9C764A",
",  c #A47F55",
"<  c #B9822E",
"1  c #BC8223",
"2  c #BB8434",
"3  c #BD8834",
"4  c #BC8B3B",
"5  c #B6853B",
"6  c #C18624",
"7  c #C68A25",
"8  c #C58B2B",
"9  c #C98D28",
"0  c #CF9225",
"q  c #CC912B",
"w  c #D09226",
"e  c #D39529",
"r  c #D69929",
"t  c #DA9C2B",
"y  c #D79927",
"u  c #C38B33",
"i  c #C98E34",
"p  c #C28B3A",
"a  c #CB8E3A",
"s  c #C08539",
"d  c #CB9235",
"f  c #C4913D",
"g  c #CB933C",
"h  c #D19433",
"j  c #D69A34",
"k  c #DB9E32",
"l  c #D09438",
"z  c #D39A3C",
"x  c #DA9E3B",
"c  c #DEA02F",
"v  c #DEA132",
"b  c #DDA43A",
"n  c #E0A22F",
"m  c #E1A332",
"M  c #E1A53A",
"N  c #E5A93D",
"B  c #E9AB3E",
"V  c #BC8C42",
"C  c #B78346",
"Z  c #B78E68",
"A  c #BC9164",
"S  c #AC8565",
"D  c #C38D43",
"F  c #C39344",
"G  c #CB9643",
"H  c #C5964A",
"J  c #CD944B",
"K  c #C6984D",
"L  c #CA9A4B",
"P  c #C79847",
"I  c #D29B44",
"U  c #D2964A",
"Y  c #D59B4A",
"T  c #DA9D4B",
"R  c #DC9F46",
"E  c #CD9E52",
"W  c #C79759",
"Q  c #D39A52",
"!  c #D59B55",
"~  c #DDA443",
"^  c #DFA943",
"/  c #D4A24C",
"(  c #DDA34B",
")  c #D8A549",
"_  c #CEA155",
"`  c #D4A553",
"'  c #DAA352",
"]  c #DAAA55",
"[  c #D4A55A",
"{  c #D5A95C",
"}  c #DBAC5B",
"|  c #DBA55A",
" . c #DDB05D",
".. c #E6A744",
"X. c #E3AA44",
"o. c #EDAE47",
"O. c #E3A54A",
"+. c #E4AB4B",
"@. c #EBAD4D",
"#. c #ECB146",
"$. c #EBB44E",
"%. c #E4B04E",
"&. c #F3B445",
"*. c #F3B44B",
"=. c #F5B94B",
"-. c #FBBC4C",
";. c #F8B947",
":. c #E2A652",
">. c #E2AE52",
",. c #E9AD52",
"<. c #E3AB59",
"1. c #E5AA5D",
"2. c #E4B253",
"3. c #ECB453",
"4. c #EEB955",
"5. c #E4B45C",
"6. c #ECB55A",
"7. c #E7B95F",
"8. c #EBBA5C",
"9. c #F4B550",
"0. c #F3BB53",
"q. c #F9BE52",
"w. c #F2B55B",
"e. c #F2BE5B",
"r. c #F8BA5E",
"t. c #C99D73",
"y. c #CEA16C",
"u. c #D9A763",
"i. c #DCB263",
"p. c #DEB569",
"a. c #CFA375",
"s. c #D8AD7A",
"d. c #DFB37A",
"f. c #EAAE63",
"g. c #E1AA69",
"h. c #E7AD65",
"j. c #E2B563",
"k. c #E6BA64",
"l. c #EBBD64",
"z. c #E1B66A",
"x. c #EDB36D",
"c. c #E6BE6D",
"v. c #E9BF6D",
"b. c #EDB165",
"n. c #F3BD62",
"m. c #FBBD63",
"M. c #F5B867",
"N. c #ECB575",
"B. c #E7BF70",
"V. c #E9BD72",
"C. c #EDBB79",
"Z. c #F5BC7C",
"A. c #F7BC72",
"S. c #FEC14F",
"D. c #FEC354",
"F. c #F6C25D",
"G. c #FBC45C",
"H. c #FFCA5C",
"J. c #FFD05F",
"K. c #EBC16E",
"L. c #EFC167",
"P. c #F4C364",
"I. c #FBC563",
"U. c #FFCC64",
"Y. c #F3C46B",
"T. c #FDC46A",
"R. c #F6C86E",
"E. c #FDCB6B",
"W. c #FFD364",
"Q. c #FFD867",
"!. c #FFD46B",
"~. c #FFD86A",
"^. c #E7C072",
"/. c #EBC373",
"(. c #EEC678",
"). c #EFC879",
"_. c #E5C479",
"`. c #F1C674",
"'. c #FEC473",
"]. c #F3C874",
"[. c #FDCC73",
"{. c #FCC47C",
"}. c #F3CB7B",
"|. c #FECC7D",
" X c #FFD474",
".X c #FFD872",
"XX c #FDD27C",
"oX c #FFD87A",
"OX c #F7BF80",
"+X c #FCC480",
"@X c #F4CD81",
"#X c #FFCA80",
"$X c #EBD387",
"%X c #EBD48A",
"&X c #F5D384",
"*X c #FBD384",
"=X c #FFD986",
"-X c #FED788",
";X c #FFDB8B",
":X c #F3DB8C",
">X c #EFD996",
",X c #F2DD9D",
"<X c #FFDF90",
"1X c #E5CA80",
"2X c #FFE288",
"3X c #FFE493",
"4X c #FEEC9C",
"5X c #F3E39A",
"6X c #FFF09E",
"7X c #F7ECA8",
"8X c #FEF4A4",
"9X c #FFFBAB",
"0X c #FDF6AA",
"qX c #FFFFB3",
"wX c #FFFFBB",
"eX c #FBF5BA",
"rX c #FFFFC0",
"tX c None",
/* pixels */
"tXtXtXtXtXtXtXtXtXtXtXtXtXtXtXtXtXtXtXtXtXtXtXtXtXtXtXtXtXtXtXtXtXtXtXtXtXtXtXtXtXtXtXtXtXtXtXtXtXtXtXtXtXtXtXtXtXtXtXtXtXtXtXtX",
"tXtXtXtXtXtXtXtXtXtXtXtXtXtXtXtXtXtXtXtXtXtXtXtXtXtXtXtXtXtXtXtXtXtXtXtXtXtXtXtXtXtXtXtXtXtXtXtXtXtXtXtXtXtXtXtXtXtXtXtXtXtXtXtX",
"tXtXtXtXtXtXtXtXtXtXtXtXtXtXtXtXtXtXtXtXtXtXtXtXtXtXtXtXtXtX8X8X4X:XtXtXtXtXtXtXtXtXtXtXtXtXtXtXtXtXtXtXtXtXtXtXtXtXtXtXtXtXtXtX",
"tXtXtXtXtXtXtXtXtXtXtXtXtXtXtXtXtXtXtXtXtXtXtXtXeXeX7X,X>X>X%X%X1X_.^.p.p./.).(.tXtXtXtXtXtXtXtXtXtXtXtXtXtXtXtXtXtXtXtXtXtXtXtX",
"tXtXtXtXtXtXtXtXtXtXtXtXtXtXtXtXtXtXtXtXtX0X4X>X,X,X7XrXwXwX9X9X0X4X4X3X-X/.i.[ E p.B.tXtXtXtXtXtXtXtXtXtXtXtXtXtXtXtXtXtXtXtXtX",
"tXtXtXtXtXtXtXtXtXtXtXtXtXtXtXtXtXtXtX4X$X$X5XwXwXrXwXwXwXqX9X0X6X4X3X;X-X-X*X}.}.{ E Q z.tXtXtXtXtXtXtXtXtXtXtXtXtXtXtXtXtXtXtX",
"tXtXtXtXtXtXtXtXtXtXtXtXtXtXtXtXtX*Xc._.4X9XqXwXwXqXwXwXqX5X9X8X4X3X3X;X-X*X@X}.}./.(.c.L _ i.tXtXtXtXtXtXtXtXtXtXtXtXtXtXtXtXtX",
"tXtXtXtXtXtXtXtXtXtXtXtXtXtXtX/.k.{ &X3X8X8X9XqXqXwX9X9X$X3X6X4X3X3X;X-X*X@X}.}.)././././.i.H [ { tXtXtXtXtXtXtXtXtXtXtXtXtXtXtX",
"tXtXtXtXtXtXtXtXtXtXtXtXtXtXc.L z.-X3X3X8X4X8X9X0X0X8X5X`.2X3X3X3X*X-X*X}.@X}.)./././././.B.B.` L { tXtXtXtXtXtXtXtXtXtXtXtXtXtX",
"tXtXtXtXtXtXtXtXtXtXtXtXtX5.F /.*X-X;X2X3X4X4X8X6X6X4Xi.oX=X2X;X*X-X*X}.}.}.].(./././././.B.c.c.i.P { tXtXtXtXtXtXtXtXtXtXtXtXtX",
"tXtXtXtXtXtXtXtXtXtXtXtX} H ].}.@X*X=X<X3X3X3X3X3X3X&X3. X=X=X&X*X}.}.}.}./.(././.^.^.^.c.v.v.B.c.c.L ] tXtXtXtXtXtXtXtXtXtXtXtX",
"tXtXtXtXtXtXtXtXtXtXtX} E ].}.@XXX*X-X;X<X;X3X<X;X2X] F.R.&XXX}.}.}.(./././././././.c.B.B.B.c.c.c.c./.L ` tXtXtXtXtXtXtXtXtXtXtX",
"tXtXtXtXtXtXtXtXtXtX} _ }.}.}.}.*X*X*X*X-X*X=X*X=X*Xz e.R.}.}.}.(././././././.B.B.B.V.c.c.B.c.c.c.c.c.c./ ` tXtXtXtXtXtXtXtXtXtX",
"tXtXtXtXtXtXtXtXtXv._ }.}.}.}.&X}.XXXX*X*X*X*X*X&X/.h 8.`.).}._.(./.^./.^.B.v.B./.^._.B.c.c.c.v.c.c.^.c.B.` ` tXtXtXtXtXtXtXtXtX",
"tXtXtXtXtXtXtXtXK.L }.XX}.}.}.}.}.*X*X}.}.}.}.}.}.[ m 3.K././.K.K.(.B.B.B.B.B.B.c.c.B.c.B.B.^.c.^.^.c.c./.c.` P tXtXtXtXtXtXtXtX",
"tXtXtXtXtXtXtX(.Q (.}.}.}.}.|.}.}.].}.}.}.].}.).).E t %.K././.^.c.c.i.H H i././.B.B./.c.c.c.c.c.c.^./.K.^.^.k.] 5 tXtXtXtXtXtXtX",
"tXtXtXtXtXtXtXj.i.}.@X}.}.}.}.}.}.).}./.`.).)././.P c b k.K.^.K.^._ 1 r r 7 / K././.^.^.c.c.K./.K.^.K././././.j.` tXtXtXtXtXtXtX",
"tXtXtXtXtXtXc.L }.}.}.}.}.`.}.`././././././.K./.^.P c r  .^.K.^.i.6 y t t r t 5.c.^.K.K.K.^././.K./.K./././././. .4 tXtXtXtXtXtX",
"tXtXtXtXtXtXE c.}.}.).)./.}././.)././.K.K./.K.^.K._ r r b K.K.^.K y r y t t c 2.c./././.K./././.)./././././././.v.} tXtXtXtXtXtX",
"tXtXtXtXtXc.L (././.(./.(././././.K./.^.^.^.K.^.K.p.7 t e ) p.K.` e t y t y c 5.K././././././.).)././.).(.}./.(./.k.V tXtXtXtXtX",
"tXtXtXtXtXQ z./././.(././././.K.^.c.^.^.^.c.K.^.^.^.d y y 0 ) K.^.j r c v v 2.5././.]././.`.`././.`.)./.}././././.l.] tXtXtXtXtX",
"tXtXtXtXi.H /./.^./././.v./.c.B.c.K.^.^.c.^.c.^.k.^.i.0 t t q ` K.7.^ ^ X.2.2.K./.`.`.`.}.`.}.}.@X@X}.).).).]././.K.j.- tXtXtXtX",
"tXtXtXtXi._ /./.B././.^./.B./.c.c.c.c.k.^.^.^.c.k.^.L.] e y y e / /.K.k.8.l.K././.}.`.}.}.}.}.}.}.}.`.}.`.)./.`./.Y.7.P tXtXtXtX",
"tXtXtXtXH /.^.c.B.B.^.c.B.^.B.v.K.c.^.c.c.k.c.K.^.K.^. .< c t t r u f E ^.`.`.}.}.}.}.}.@X}.].}.}.}.}.).}.`.`.].Y.K.l.5.tXtXtXtX",
"tXtXtXz.H c.B.B.B.c.B.^./.B.B.B.c.c.c.c.k.c.^.k.^.{ 4 1 t c c c c c c c h z p.].}.}.].}.@X@X}.}.}.}.}.}.}.).].Y.Y.K.L.2.= tXtXtX",
"tXtXtXp.H B.B.c.c.c.^.c.c.c.B.B.c.c.c.c.c.^.c.c.V 0 t v X.%.^ b v c v m m m r / `.}.}.}.}.}.}.}.].}.}.}.].`.Y.Y.P.P.n.8.5 tXtXtX",
"tXtXtX[ { B.^.c.B.B.B.c.c.c.v.B.^.c.c.c.K.^.p.< t b %.2.2.7.l.8.X.c c m c B v M l /.}.).}.}.}.}.}.}.].].].R.R.R.Y.P.P.0.I tXtXtX",
"tXtXtXK c.c.c.B.B.c.B.c.B.B.c._./.^.c.^.K.i.< c b 2.2.k.z.L K.).L.2.m m m c b m m j l.}.}.}.@X}.].].].].R.R.R.P.P.P.F.F.>.tXtXtX",
"tXtXtXF B.c.^.^.c.c.B.B.c.B.^.B.^.c.^./.k.2 c b 2.l.K./.3 7.K././.K.%.c c m v %.m m x Y.].}.}.].].].R.R.].R.E.P.I.G.F.F.4.o tXtX",
"tXtXtXH c.^.^.^.^.c.B.c.c.B.c.B.c.c.c.K.V r b %.k.K./.P ^ 5.K././.).K.) c m c #.2.k m ^ `.].].].].[.R.R.R.E.U.I.I.G.G.G.0.% tXtX",
"tXtXc.K ^.c.c.z.c.c.c.B.B.c.c.B.^.K.^.{ 7 c 2.5.K./.i.8 %.l.K././././.K.q c c N 8.) n v 6.Y.].].].R.R.E.T.U.E.I.U.G.H.G.0.* tXtX",
"tXtX[ V c.B.c.c.B.c.c.c.c.c.B.c.^.^.c.3 t X.2.c.K.K.4 v 2.K./././.K.K.K.] c c b l./.j m M Y.Y.R.R.R.E.E.E.U.U.U.U.H.D.D.q.= tXtX",
"tXtX .K c.c.^._.c._.c.^.c.c.^.c._.K. .1 c %.7.^.K.p.1 b %.K.K.K.K./././.K.8 v b 8./.] k m 0.Y.[.R.E.E.E.U.U.U.U.U.H.H.D.D.* tXtX",
"tXtXi.K c.c.K.^.c.c.c.c.^.^.c.c.K.^.V r b %.^._.K.P c b  .K.^.^.K.K.^.^.K.f c b 8.Y.K.e m o.P.[.E.E.E.U.E.W.!.U.H.J.H.D.G.* tXtX",
"tXtXtXK c.^.c.p.c.c.c.^.^.c.c.c.K.c.< c ) p.c.k.^.4 y b 2.^.^.k.K.^.K././.P c N 8.K.Y.I m B F.[.E.U.E.W.!.U.W.J.J.J.D.H.F.$ tXtX",
"tXtXtXV c.^.^.c.c.c.c.c.c.c.c.^.c.c.1 c ^ L.K.^.K.u r c 2.^.K.^.^.K.^.K.K.g c %.8.Y.Y.` x N q.U.U.E.W.!.J.W.W.J.J.H.J.H.P.+ tXtX",
"tXtXtXK p.c.c.c.c.c.c.c.c.c.c.c.c. .1 v ] K.k.^.^.d r y ] ^.K.^.^.K.^.K.K.f c $.8.P.Y.8.h N D.U.E.W.W.!.W.W.W.W.W.U.U.G.8.tXtXtX",
"tXtXtX{ { c.c.c.c.c.c.^.^.c.c.c.c._ 0 v ^ K.c.k.^.P r c v k.k.^.^.^.K.K.L.3 b $.P.Y.P.I.a N D.U.!.W.W.W.Q.Q.W.!.W.U.U.T.} tXtXtX",
"tXtXtXi._ ^.c.c.^.^.^.c.c.^.c.c.p._ e c  .K.^.^.K. .9 y y ) ^.K.K.K.K.K.L.1 4.F.P.P.I.I.a ..D.W.W.W.W.W.Q.Q.W.!.U.E.T.U.W tXtXtX",
"tXtXtX[ V c.c.c.c.c.c.p.p.c.c.c.^._ 0 v %.k.^.^.^.^.) y y 0 ` K.k.K.K.L.P ^ %.F.P.F.I.I.g ..D.W.W.W.W.~.W.!.!.!.E.E.E.E.> tXtXtX",
"tXtXtXtXP c.c.c.c.c.p.c.c.c.c.c.c.{ 7 c %.k.c.^.K.^.c.x t t w I K.K.L.7.f 3.e.F.F.G.I.F.I @.H.J.Q.Q.~.~.!.!.!.[.E.[.T.Y.O tXtXtX",
"tXtXtXtX} _ c.c.c.c.c.c.c.c.c.c.^.k.1 y %.c.^.K.^./.v.l.^ t t e u 8.L.] 2.4.e.F.G.I.H.] O.w.G.W.W.~.!.~..X X X X[.'.R.u.tXtXtXtX",
"tXtXtXtX[ P c.c.c.c.c.c.c.c.c.c.c.c.3 c b k.^.K.K.^././.v.+.b c t u %.8.4.e.F.F.G.G.H.' :.e.H.W.~.~..X X XoX[.[.[.'.[.S tXtXtXtX",
"tXtXtXtXtXE i.c.c.c.k.k.c.c.c.^._.K.g c v L./.^././.K.K.K.l.3.X.M t 7 ) 4.e.F.F.G.D.H.L O.I.U.!.~.!..X X XXXXX[.'.[.V.tXtXtXtXtX",
"tXtXtXtXtX` L c.^.K.p.K.k.^.^.^.^.^. .0 c %.^._.`./.K.K.K.l.L.8.$.#.B b d 3.F.D.D.H.2.Y 6.I.U.!. X.X XoXXXXXXX|.'.|.A tXtXtXtXtX",
"tXtXtXtXtXtX/ i.p.K.K.^.^.^.k.^.^.K.K.z c b L.K.K./.K.P.l.P.l.8.8.4.4.#.*.=.0.S.D.D.J O.Y.I.!.!. XoXoXXXXX|.|.{.{._.O tXtXtXtXtX",
"tXtXtXtXtXtXL / ^.^.^.^.^.K.K.^.K./._. .r v ) K.Y.K.K.l.l.e.8.l.e.4.4.0.0.D.S.S.D.( Y 1.m.U.E. X XoXXXXXXX#X|.{.XXZ tXtXtXtXtXtX",
"tXtXtXtXtXtXtX` } ^.k.k.^.^.^.^././.K./.) c c %.K.K.P.P.l.P.F.4.e.0.=.0.=.=.q.S.+.F T ].m.E.[. X|.XXXX|.#X+X+X}.d.tXtXtXtXtXtXtX",
"tXtXtXtXtXtXtX4 ` c.c.^.K.^./.^././.}.`.K.v m j >.l.Y.P.n.P.0.4.0.0.9.*.;.;.-.O.D T v.w.I.T.[.[.|.|.|.|.+X+X+X@X: tXtXtXtXtXtXtX",
"tXtXtXtXtXtXtXtXF ` ^.K.K.^./.K./.(././.K.l.v m e ) n.P.P.e.e.0.0.=.;.&.;.;.I s U k.w.r.T.T.[.[.|.|.#X{.OXOX&XZ tXtXtXtXtXtXtXtX",
"tXtXtXtXtXtXtXtXtX`  .^./././././.`.Y./.Y.Y.6.M k j i ] 0.0.0.9.*.=.;.;.x 5 p U j.1.w.m.m.T.'.{.{.+X+X+XOX@Xa.tXtXtXtXtXtXtXtXtX",
"tXtXtXtXtXtXtXtXtXtX` 5./././././.Y./.Y.Y.R.P.e...m m h u a I I I d a - s G Q h.:.3.w.m.M.m.A.A.{.{.+XZ.+X1XX tXtXtXtXtXtXtXtXtX",
"tXtXtXtXtXtXtXtXtXtXtX` 5././.K.].K.Y.Y.Y.P.I.P.r.=.B N x j j g a d a a T 1.:.O.,.w.f.w.M.M.A.A.Z.Z.Z.@Xd.# tXtXtXtXtXtXtXtXtXtX",
"tXtXtXtXtXtXtXtXtXtXtXtX{ 5./.K.K.K.Y.Y.P.P.P.I.G.F.q.=.*.o.....O.( +.<.R R ..@.@.,.1.f.f.x.x.N.N.N.@Xs.# tXtXtXtXtXtXtXtXtXtXtX",
"tXtXtXtXtXtXtXtXtXtXtXtXtXL 7.K.L.P.P.P.P.I.I.F.F.G.G.S.-.;.&.o.o.........O.O.:.:.:.1.1.f.h.x.N.N.@Xt.X tXtXtXtXtXtXtXtXtXtXtXtX",
"tXtXtXtXtXtXtXtXtXtXtXtXtXtX5 5.l.L.Y.F.P.G.F.G.D.G.D.D.D.-.-.*.*.o.o.+.O.O.O.:.T | :.1.g.g.g.N.V.S tXtXtXtXtXtXtXtXtXtXtXtXtXtX",
"tXtXtXtXtXtXtXtXtXtXtXtXtXtXtX= ] l.e.F.F.G.G.D.D.D.S.S.-.-.*.*.*.o.O.O.R T T T Q ! ! ! g.g.V.y.; tXtXtXtXtXtXtXtXtXtXtXtXtXtXtX",
"tXtXtXtXtXtXtXtXtXtXtXtXtXtXtXtXtX- 6.w.F.G.F.D.D.D.D.q.-.-.*.9.o.O...R R T T Q Q Q ! u.g.u.: tXtXtXtXtXtXtXtXtXtXtXtXtXtXtXtXtX",
"tXtXtXtXtXtXtXtXtXtXtXtXtXtXtXtXtXtXtX5 2.e.q.D.D.D.q.q.q.9.9.@.@.O.T T Y U U J U | | y.: X tXtXtXtXtXtXtXtXtXtXtXtXtXtXtXtXtXtX",
"tXtXtXtXtXtXtXtXtXtXtXtXtXtXtXtXtXtXtXtXtX- I 3.D.D.q.-.9.9.@.@.O.T T Y U T T ! T , ; . tXtXtXtXtXtXtXtXtXtXtXtXtXtXtXtXtXtXtXtX",
"tXtXtXtXtXtXtXtXtXtXtXtXtXtXtXtXtXtXtXtXtXtXtXtX= V Y 2.3.3.,.3.:.,.O.O.U , = $   tXtXtXtXtXtXtXtXtXtXtXtXtXtXtXtXtXtXtXtXtXtXtX",
"tXtXtXtXtXtXtXtXtXtXtXtXtXtXtXtXtXtXtXtXtXtXtXtXtXtXtXtXo @ & $ $ @ o   tXtXtXtXtXtXtXtXtXtXtXtXtXtXtXtXtXtXtXtXtXtXtXtXtXtXtXtX",
"tXtXtXtXtXtXtXtXtXtXtXtXtXtXtXtXtXtXtXtXtXtXtXtXtXtXtXtXtXtXtXtXtXtXtXtXtXtXtXtXtXtXtXtXtXtXtXtXtXtXtXtXtXtXtXtXtXtXtXtXtXtXtXtX",
"tXtXtXtXtXtXtXtXtXtXtXtXtXtXtXtXtXtXtXtXtXtXtXtXtXtXtXtXtXtXtXtXtXtXtXtXtXtXtXtXtXtXtXtXtXtXtXtXtXtXtXtXtXtXtXtXtXtXtXtXtXtXtXtX"
};
